<svg width="140" height="44" viewBox="0 0 140 44" fill="none" xmlns="http://www.w3.org/2000/svg">
<rect width="139.029" height="44.0001" rx="8" fill="#2E3A59"/>
<path d="M29.1039 21.2584C29.1164 20.3256 29.3726 19.411 29.8489 18.5997C30.3251 17.7884 31.0059 17.1067 31.8278 16.6182C31.3057 15.8971 30.6168 15.3038 29.816 14.8852C29.0152 14.4666 28.1244 14.2343 27.2145 14.2068C25.2735 14.0098 23.3918 15.3298 22.4027 15.3298C21.3945 15.3298 19.8716 14.2263 18.2317 14.259C17.171 14.2921 16.1372 14.5903 15.2312 15.1246C14.3251 15.6589 13.5776 16.4109 13.0616 17.3076C10.8261 21.0497 12.4935 26.5493 14.6349 29.5742C15.7063 31.0554 16.9585 32.7099 18.5969 32.6512C20.2001 32.5869 20.7989 31.6627 22.7342 31.6627C24.6516 31.6627 25.2133 32.6512 26.885 32.6139C28.6054 32.5869 29.6893 31.1261 30.7231 29.6309C31.4929 28.5755 32.0852 27.4091 32.4782 26.1748C31.4787 25.7661 30.6258 25.0819 30.0257 24.2076C29.4257 23.3334 29.1051 22.3077 29.1039 21.2584Z" fill="white"/>
<path d="M25.9465 12.2174C26.8845 11.1287 27.3466 9.72928 27.2347 8.31641C25.8016 8.46194 24.4779 9.12417 23.5272 10.1711C23.0623 10.6826 22.7063 11.2777 22.4795 11.9222C22.2527 12.5668 22.1594 13.2483 22.2052 13.9278C22.922 13.9349 23.6311 13.7847 24.2792 13.4884C24.9272 13.1922 25.4973 12.7576 25.9465 12.2174Z" fill="white"/>
<path d="M49.3682 28.9014H43.8969L42.583 32.6525H40.2656L45.4479 18.7744H47.8556L53.0379 32.6525H50.681L49.3682 28.9014ZM44.4636 27.1705H48.8005L46.6625 21.0827H46.6027L44.4636 27.1705Z" fill="white"/>
<path d="M64.2328 27.5942C64.2328 30.7384 62.4922 32.7586 59.8655 32.7586C59.2001 32.7922 58.5383 32.644 57.956 32.331C57.3737 32.0179 56.8943 31.5526 56.5728 30.9883H56.5231V36H54.375V22.5345H56.4543V24.2174H56.4938C56.8301 23.6559 57.3176 23.193 57.9043 22.878C58.4911 22.563 59.1552 22.4077 59.826 22.4286C62.482 22.4286 64.2328 24.4586 64.2328 27.5942ZM62.0248 27.5942C62.0248 25.5456 60.9299 24.1989 59.2593 24.1989C57.618 24.1989 56.5141 25.574 56.5141 27.5942C56.5141 29.6329 57.618 30.9982 59.2593 30.9982C60.9299 30.9982 62.0248 29.6612 62.0248 27.5942Z" fill="white"/>
<path d="M75.7484 27.5941C75.7484 30.7384 74.0078 32.7586 71.3811 32.7586C70.7157 32.7922 70.054 32.644 69.4716 32.3309C68.8893 32.0179 68.4099 31.5526 68.0884 30.9883H68.0387V36H65.8906V22.5345H67.9698V24.2174H68.0094C68.3457 23.6559 68.8331 23.193 69.4199 22.878C70.0067 22.563 70.6708 22.4077 71.3415 22.4286C73.9976 22.4286 75.7484 24.4586 75.7484 27.5941ZM73.5405 27.5941C73.5405 25.5456 72.4455 24.1988 70.7749 24.1988C69.1337 24.1988 68.0297 25.574 68.0297 27.5941C68.0297 29.6328 69.1337 30.9982 70.7749 30.9982C72.4455 30.9982 73.5405 29.6612 73.5405 27.5941H73.5405Z" fill="white"/>
<path d="M83.363 28.7857C83.5221 30.1619 84.9049 31.0655 86.7945 31.0655C88.6051 31.0655 89.9077 30.1619 89.9077 28.9209C89.9077 27.8437 89.1221 27.1988 87.2618 26.7567L85.4016 26.3234C82.7659 25.7079 81.5422 24.5161 81.5422 22.5822C81.5422 20.1877 83.7005 18.543 86.7652 18.543C89.7982 18.543 91.8774 20.1877 91.9474 22.5822H89.779C89.6492 21.1972 88.4651 20.3612 86.7346 20.3612C85.0042 20.3612 83.8201 21.207 83.8201 22.4381C83.8201 23.4193 84.5764 23.9966 86.4265 24.4386L88.0079 24.814C90.9529 25.4874 92.1765 26.6312 92.1765 28.6611C92.1765 31.2575 90.0375 32.8837 86.6353 32.8837C83.4521 32.8837 81.3029 31.2957 81.1641 28.7856L83.363 28.7857Z" fill="white"/>
<path d="M96.8127 20.1396V22.5341H98.8027V24.1789H96.8127V29.7569C96.8127 30.6235 97.2111 31.0273 98.0859 31.0273C98.3222 31.0233 98.5581 31.0073 98.7926 30.9792V32.6141C98.3992 32.6852 97.9995 32.7174 97.5994 32.7102C95.4807 32.7102 94.6544 31.9407 94.6544 29.9784V24.1789H93.1328V22.5341H94.6544V20.1396H96.8127Z" fill="white"/>
<path d="M99.9531 27.5937C99.9531 24.4102 101.892 22.4097 104.916 22.4097C107.951 22.4097 109.881 24.4101 109.881 27.5937C109.881 30.786 107.961 32.7778 104.916 32.7778C101.873 32.7778 99.9531 30.786 99.9531 27.5937ZM107.692 27.5937C107.692 25.4099 106.657 24.121 104.916 24.121C103.176 24.121 102.142 25.4197 102.142 27.5937C102.142 29.7863 103.176 31.0654 104.916 31.0654C106.657 31.0654 107.692 29.7863 107.692 27.5937H107.692Z" fill="white"/>
<path d="M111.648 22.5344H113.697V24.2566H113.747C113.886 23.7187 114.211 23.2434 114.67 22.9105C115.128 22.5775 115.691 22.4074 116.264 22.4285C116.512 22.4277 116.759 22.4537 117 22.506V24.4487C116.688 24.3563 116.362 24.3139 116.035 24.3232C115.723 24.3109 115.412 24.3641 115.123 24.4791C114.834 24.5941 114.575 24.7681 114.362 24.9893C114.149 25.2105 113.989 25.4735 113.891 25.7603C113.793 26.0472 113.761 26.351 113.797 26.6511V32.6526H111.648L111.648 22.5344Z" fill="white"/>
<path d="M126.909 29.6805C126.62 31.5173 124.77 32.7778 122.403 32.7778C119.358 32.7778 117.469 30.8057 117.469 27.6418C117.469 24.468 119.368 22.4097 122.312 22.4097C125.208 22.4097 127.028 24.3327 127.028 27.4006V28.1121H119.637V28.2376C119.603 28.61 119.651 28.9852 119.779 29.3381C119.906 29.6911 120.11 30.0138 120.376 30.2849C120.642 30.556 120.965 30.7692 121.323 30.9103C121.681 31.0515 122.066 31.1174 122.452 31.1036C122.96 31.1496 123.469 31.0359 123.905 30.7795C124.34 30.5231 124.678 30.1376 124.869 29.6805L126.909 29.6805ZM119.647 26.6606H124.879C124.899 26.3258 124.846 25.9907 124.725 25.6764C124.604 25.3622 124.417 25.0755 124.176 24.8343C123.935 24.5932 123.645 24.4028 123.324 24.2752C123.004 24.1475 122.659 24.0854 122.312 24.0926C121.963 24.0906 121.616 24.1555 121.292 24.2838C120.968 24.412 120.674 24.601 120.426 24.8397C120.179 25.0785 119.982 25.3623 119.849 25.6748C119.715 25.9874 119.646 26.3224 119.647 26.6606V26.6606Z" fill="white"/>
<path d="M44.1944 8.32886C44.6447 8.29761 45.0966 8.36339 45.5175 8.52145C45.9384 8.67951 46.3177 8.92592 46.6281 9.24289C46.9386 9.55986 47.1724 9.9395 47.3127 10.3544C47.4531 10.7693 47.4964 11.2092 47.4396 11.6423C47.4396 13.7727 46.2488 14.9973 44.1944 14.9973H41.7031V8.32886H44.1944ZM42.7743 14.0542H44.0747C44.3965 14.0728 44.7185 14.0218 45.0174 13.9049C45.3162 13.788 45.5843 13.6081 45.8022 13.3783C46.0201 13.1486 46.1822 12.8748 46.2769 12.5768C46.3715 12.2789 46.3962 11.9642 46.3492 11.6559C46.3928 11.3487 46.3656 11.0361 46.2695 10.7403C46.1734 10.4445 46.0109 10.1729 45.7935 9.94502C45.5761 9.71711 45.3093 9.53852 45.0121 9.42202C44.715 9.30553 44.3949 9.25403 44.0747 9.27121H42.7743V14.0542Z" fill="white"/>
<path d="M48.6522 12.4783C48.6195 12.1476 48.6586 11.8139 48.7671 11.4987C48.8756 11.1834 49.051 10.8936 49.2821 10.6477C49.5132 10.4019 49.7949 10.2055 50.1091 10.071C50.4234 9.93662 50.7632 9.86719 51.1068 9.86719C51.4504 9.86719 51.7902 9.93662 52.1044 10.071C52.4187 10.2055 52.7004 10.4019 52.9315 10.6477C53.1626 10.8936 53.338 11.1834 53.4465 11.4987C53.5549 11.8139 53.5941 12.1476 53.5613 12.4783C53.5947 12.8093 53.556 13.1435 53.4478 13.4592C53.3397 13.7749 53.1644 14.0653 52.9332 14.3116C52.702 14.558 52.4201 14.7548 52.1056 14.8895C51.791 15.0242 51.4508 15.0938 51.1068 15.0938C50.7628 15.0938 50.4226 15.0242 50.108 14.8895C49.7935 14.7548 49.5116 14.558 49.2804 14.3116C49.0492 14.0653 48.8739 13.7749 48.7657 13.4592C48.6576 13.1435 48.6189 12.8093 48.6522 12.4783ZM52.5048 12.4783C52.5048 11.3874 51.998 10.7495 51.1085 10.7495C50.2156 10.7495 49.7133 11.3874 49.7133 12.4783C49.7133 13.5779 50.2156 14.2108 51.1085 14.2108C51.998 14.2108 52.5048 13.5735 52.5048 12.4783H52.5048Z" fill="white"/>
<path d="M60.0808 14.9967H59.0152L57.9395 11.2904H57.8582L56.787 14.9967H55.7316L54.2969 9.96436H55.3388L56.2711 13.8043H56.3479L57.418 9.96436H58.4034L59.4735 13.8043H59.5548L60.4826 9.96436H61.5098L60.0808 14.9967Z" fill="white"/>
<path d="M62.7188 9.9644H63.7076V10.7638H63.7843C63.9145 10.4767 64.1342 10.236 64.4126 10.0753C64.691 9.91458 65.0144 9.84186 65.3375 9.86726C65.5908 9.84885 65.8451 9.88577 66.0816 9.97528C66.3181 10.0648 66.5307 10.2046 66.7037 10.3844C66.8767 10.5641 67.0057 10.7792 67.0811 11.0137C67.1564 11.2482 67.1763 11.4961 67.1391 11.739V14.9967H66.1119V11.9884C66.1119 11.1797 65.7484 10.7775 64.9888 10.7775C64.8168 10.7697 64.6452 10.798 64.4856 10.8604C64.326 10.9228 64.1823 11.0178 64.0642 11.139C63.9462 11.2601 63.8566 11.4045 63.8017 11.5622C63.7467 11.7199 63.7277 11.8873 63.7459 12.0528V14.9968H62.7188L62.7188 9.9644Z" fill="white"/>
<path d="M68.7812 8H69.8085V14.9969H68.7812V8Z" fill="white"/>
<path d="M71.2303 12.4784C71.1976 12.1476 71.2368 11.8139 71.3453 11.4987C71.4538 11.1834 71.6292 10.8936 71.8604 10.6477C72.0915 10.4019 72.3732 10.2055 72.6875 10.071C73.0017 9.93662 73.3415 9.86719 73.6852 9.86719C74.0288 9.86719 74.3686 9.93662 74.6829 10.071C74.9971 10.2055 75.2789 10.4019 75.51 10.6477C75.7411 10.8936 75.9166 11.1834 76.025 11.4987C76.1335 11.8139 76.1727 12.1476 76.14 12.4784C76.1733 12.8094 76.1346 13.1436 76.0264 13.4593C75.9182 13.7751 75.7428 14.0654 75.5116 14.3117C75.2805 14.5581 74.9985 14.7549 74.684 14.8896C74.3694 15.0243 74.0292 15.0939 73.6852 15.0939C73.3411 15.0939 73.0009 15.0243 72.6864 14.8896C72.3718 14.7549 72.0899 14.5581 71.8587 14.3117C71.6275 14.0654 71.4522 13.7751 71.3439 13.4593C71.2357 13.1436 71.197 12.8094 71.2303 12.4784ZM75.0829 12.4784C75.0829 11.3875 74.576 10.7496 73.6866 10.7496C72.7937 10.7496 72.2914 11.3875 72.2914 12.4784C72.2914 13.5779 72.7937 14.2109 73.6866 14.2109C74.5761 14.2109 75.0829 13.5736 75.0829 12.4784H75.0829Z" fill="white"/>
<path d="M77.2266 13.5735C77.2266 12.6677 77.9242 12.1454 79.1624 12.0712L80.5723 11.9927V11.5583C80.5723 11.0268 80.2088 10.7266 79.5067 10.7266C78.9333 10.7266 78.536 10.9302 78.422 11.286H77.4275C77.5325 10.4216 78.3734 9.86719 79.5541 9.86719C80.859 9.86719 81.595 10.4953 81.595 11.5583V14.9967H80.6062V14.2895H80.5249C80.3599 14.5432 80.1283 14.75 79.8536 14.8888C79.579 15.0276 79.2711 15.0934 78.9615 15.0796C78.743 15.1016 78.5222 15.079 78.3132 15.0134C78.1043 14.9478 77.9119 14.8406 77.7484 14.6987C77.585 14.5568 77.4541 14.3834 77.3642 14.1896C77.2743 13.9958 77.2274 13.7859 77.2266 13.5735ZM80.5723 13.1435V12.7228L79.3013 12.8014C78.5845 12.8477 78.2594 13.0835 78.2594 13.5271C78.2594 13.98 78.6658 14.2436 79.2246 14.2436C79.3883 14.2596 79.5537 14.2437 79.7109 14.1966C79.8681 14.1496 80.0139 14.0724 80.1396 13.9698C80.2654 13.8672 80.3685 13.7411 80.4428 13.5992C80.5171 13.4572 80.5612 13.3023 80.5723 13.1435Z" fill="white"/>
<path d="M82.9453 12.4785C82.9453 10.8884 83.7908 9.88102 85.1058 9.88102C85.4311 9.86652 85.7539 9.94185 86.0366 10.0982C86.3192 10.2545 86.55 10.4854 86.7019 10.7639H86.7787V8H87.8059V14.9969H86.8216V14.2018H86.7403C86.5766 14.4784 86.3378 14.7064 86.0497 14.8612C85.7616 15.0159 85.4352 15.0915 85.1058 15.0798C83.7818 15.0798 82.9453 14.0725 82.9453 12.4785ZM84.0064 12.4785C84.0064 13.5459 84.5268 14.1882 85.3971 14.1882C86.2628 14.1882 86.7979 13.5366 86.7979 12.4829C86.7979 11.4341 86.2572 10.7732 85.3971 10.7732C84.5324 10.7732 84.0064 11.4199 84.0064 12.4785H84.0064Z" fill="white"/>
<path d="M92.0507 12.4783C92.018 12.1476 92.0571 11.8139 92.1655 11.4987C92.274 11.1834 92.4494 10.8936 92.6805 10.6477C92.9116 10.4019 93.1933 10.2055 93.5076 10.071C93.8218 9.93662 94.1616 9.86719 94.5052 9.86719C94.8488 9.86719 95.1887 9.93662 95.5029 10.071C95.8171 10.2055 96.0988 10.4019 96.3299 10.6477C96.561 10.8936 96.7364 11.1834 96.8449 11.4987C96.9534 11.8139 96.9925 12.1476 96.9598 12.4783C96.9931 12.8093 96.9545 13.1435 96.8463 13.4592C96.7381 13.7749 96.5628 14.0653 96.3316 14.3116C96.1005 14.558 95.8185 14.7548 95.504 14.8895C95.1895 15.0242 94.8492 15.0938 94.5052 15.0938C94.1612 15.0938 93.821 15.0242 93.5065 14.8895C93.1919 14.7548 92.91 14.558 92.6788 14.3116C92.4477 14.0653 92.2724 13.7749 92.1642 13.4592C92.056 13.1435 92.0173 12.8093 92.0507 12.4783ZM95.9032 12.4783C95.9032 11.3874 95.3964 10.7495 94.5069 10.7495C93.6141 10.7495 93.1118 11.3874 93.1118 12.4783C93.1118 13.5779 93.6141 14.2108 94.5069 14.2108C95.3964 14.2108 95.9032 13.5735 95.9032 12.4783Z" fill="white"/>
<path d="M98.3359 9.9644H99.3248V10.7638H99.4015C99.5317 10.4767 99.7514 10.236 100.03 10.0753C100.308 9.91458 100.632 9.84186 100.955 9.86726C101.208 9.84885 101.462 9.88577 101.699 9.97528C101.935 10.0648 102.148 10.2046 102.321 10.3844C102.494 10.5641 102.623 10.7792 102.698 11.0137C102.774 11.2482 102.793 11.4961 102.756 11.739V14.9967H101.729V11.9884C101.729 11.1797 101.366 10.7775 100.606 10.7775C100.434 10.7697 100.262 10.798 100.103 10.8604C99.9432 10.9228 99.7995 11.0178 99.6814 11.139C99.5634 11.2601 99.4738 11.4045 99.4189 11.5622C99.3639 11.7199 99.3449 11.8873 99.3631 12.0528V14.9968H98.3359V9.9644Z" fill="white"/>
<path d="M108.566 8.71143V9.98725H109.693V10.8238H108.566V13.4115C108.566 13.9386 108.79 14.1694 109.302 14.1694C109.432 14.169 109.563 14.1614 109.693 14.1465V14.9738C109.509 15.0057 109.322 15.0227 109.134 15.0245C107.992 15.0245 107.537 14.636 107.537 13.6658V10.8238H106.711V9.98721H107.537V8.71143H108.566Z" fill="white"/>
<path d="M111.094 8H112.112V10.7732H112.193C112.33 10.4834 112.555 10.2413 112.839 10.08C113.123 9.9187 113.452 9.84597 113.78 9.87173C114.032 9.85847 114.284 9.89914 114.518 9.99083C114.752 10.0825 114.962 10.223 115.133 10.4022C115.304 10.5813 115.432 10.7949 115.508 11.0275C115.584 11.2601 115.606 11.506 115.573 11.7478V14.9969H114.544V11.9928C114.544 11.189 114.157 10.7819 113.432 10.7819C113.255 10.7679 113.077 10.7914 112.911 10.8507C112.745 10.91 112.594 11.0037 112.469 11.1252C112.345 11.2467 112.249 11.3931 112.189 11.5542C112.128 11.7153 112.105 11.8872 112.121 12.0578V14.9968H111.094L111.094 8Z" fill="white"/>
<path d="M121.565 13.638C121.425 14.0979 121.123 14.4958 120.71 14.7619C120.298 15.0281 119.802 15.1456 119.309 15.0939C118.966 15.1026 118.626 15.0391 118.311 14.9078C117.996 14.7765 117.714 14.5804 117.485 14.3333C117.257 14.0861 117.086 13.7938 116.986 13.4766C116.886 13.1594 116.858 12.825 116.905 12.4964C116.859 12.1669 116.887 11.8317 116.987 11.5135C117.087 11.1954 117.257 10.9017 117.484 10.6524C117.712 10.4031 117.992 10.204 118.306 10.0685C118.62 9.93307 118.961 9.86444 119.305 9.86727C120.753 9.86727 121.627 10.8239 121.627 12.4042V12.7507H117.951V12.8064C117.935 12.991 117.959 13.1769 118.022 13.3521C118.084 13.5273 118.184 13.6879 118.315 13.8236C118.445 13.9594 118.604 14.0672 118.78 14.1403C118.956 14.2134 119.146 14.2501 119.338 14.248C119.583 14.2766 119.832 14.2338 120.053 14.1252C120.273 14.0165 120.455 13.8469 120.576 13.638L121.565 13.638ZM117.951 12.0162H120.58C120.593 11.8473 120.57 11.6777 120.511 11.5182C120.452 11.3587 120.359 11.2128 120.238 11.0901C120.118 10.9673 119.972 10.8703 119.81 10.8053C119.648 10.7403 119.474 10.7087 119.299 10.7126C119.121 10.7104 118.945 10.7426 118.781 10.8074C118.616 10.8722 118.467 10.9681 118.341 11.0896C118.215 11.2111 118.116 11.3557 118.049 11.5148C117.982 11.674 117.949 11.8444 117.951 12.0162H117.951Z" fill="white"/>
</svg>

