<svg width="133" height="44" viewBox="0 0 133 44" fill="none" xmlns="http://www.w3.org/2000/svg">
<rect x="0.03125" width="132.879" height="44.0001" rx="8" fill="#2E3A59"/>
<path d="M47.2282 11.4678C47.2282 12.3322 46.9932 13.0217 46.5233 13.5259C45.997 14.133 45.3015 14.4418 44.4557 14.4418C43.638 14.4418 42.952 14.133 42.3787 13.5156C41.8054 12.8982 41.5234 12.1264 41.5234 11.2209C41.5234 10.305 41.8054 9.54355 42.3787 8.92613C42.952 8.30871 43.638 8 44.4557 8C44.8598 8 45.2451 8.08232 45.6117 8.25726C45.9782 8.43219 46.2696 8.65858 46.4951 8.94671L45.997 9.4921C45.6211 9.00845 45.1136 8.76149 44.4557 8.76149C43.8636 8.76149 43.3467 8.98787 42.9144 9.45094C42.4821 9.90372 42.2659 10.5006 42.2659 11.2312C42.2659 11.9618 42.4821 12.5586 42.9144 13.0114C43.3467 13.4642 43.8636 13.7009 44.4557 13.7009C45.0854 13.7009 45.6117 13.4745 46.0346 13.0114C46.3071 12.713 46.4669 12.2911 46.5045 11.756H44.4557V11.0151H47.1906C47.2094 11.1694 47.2282 11.3238 47.2282 11.4678Z" fill="white" stroke="white" stroke-width="0.2" stroke-miterlimit="10"/>
<path d="M51.5628 8.89528H48.9971V10.8504H51.3091V11.5913H48.9971V13.5465H51.5628V14.308H48.2734V8.13379H51.5628V8.89528Z" fill="white" stroke="white" stroke-width="0.2" stroke-miterlimit="10"/>
<path d="M54.6151 14.308H53.8914V8.89528H52.3125V8.13379H56.1846V8.89528H54.6057V14.308H54.6151Z" fill="white" stroke="white" stroke-width="0.2" stroke-miterlimit="10"/>
<path d="M58.9922 14.308V8.13379H59.7158V14.308H58.9922Z" fill="white" stroke="white" stroke-width="0.2" stroke-miterlimit="10"/>
<path d="M62.9354 14.308H62.2117V8.89528H60.6328V8.13379H64.5049V8.89528H62.926V14.308H62.9354Z" fill="white" stroke="white" stroke-width="0.2" stroke-miterlimit="10"/>
<path d="M71.8451 13.5053C71.2906 14.133 70.6045 14.4418 69.7775 14.4418C68.9504 14.4418 68.2644 14.133 67.7099 13.5053C67.1554 12.8776 66.8828 12.1161 66.8828 11.2209C66.8828 10.3256 67.1554 9.55384 67.7099 8.93642C68.2644 8.30871 68.9504 8 69.7775 8C70.5951 8 71.2812 8.30871 71.8451 8.93642C72.3996 9.56413 72.6815 10.3256 72.6815 11.2209C72.6721 12.1264 72.3996 12.8879 71.8451 13.5053ZM68.2456 12.9908C68.6591 13.4539 69.176 13.6803 69.7775 13.6803C70.379 13.6803 70.8959 13.4539 71.3094 12.9908C71.7229 12.5278 71.9391 11.9412 71.9391 11.2209C71.9391 10.5006 71.7323 9.91401 71.3094 9.45094C70.8959 8.98787 70.379 8.76149 69.7775 8.76149C69.176 8.76149 68.6591 8.98787 68.2456 9.45094C67.832 9.91401 67.6159 10.5006 67.6159 11.2209C67.6159 11.9412 67.832 12.5278 68.2456 12.9908Z" fill="white" stroke="white" stroke-width="0.2" stroke-miterlimit="10"/>
<path d="M73.6953 14.308V8.13379H74.5787L77.323 12.9394H77.3512L77.323 11.7457V8.13379H78.0467V14.308H77.2948L74.4284 9.27602H74.4002L74.4284 10.4697V14.308H73.6953Z" fill="white" stroke="white" stroke-width="0.2" stroke-miterlimit="10"/>
<path d="M66.7036 23.3121C64.495 23.3121 62.6906 25.154 62.6906 27.6855C62.6906 30.2066 64.495 32.0589 66.7036 32.0589C68.9122 32.0589 70.7167 30.2066 70.7167 27.6855C70.7167 25.154 68.9122 23.3121 66.7036 23.3121ZM66.7036 30.3404C65.4912 30.3404 64.448 29.2496 64.448 27.6855C64.448 26.111 65.4912 25.0305 66.7036 25.0305C67.916 25.0305 68.9592 26.111 68.9592 27.6855C68.9592 29.2496 67.9066 30.3404 66.7036 30.3404ZM57.9445 23.3121C55.7359 23.3121 53.9314 25.154 53.9314 27.6855C53.9314 30.2066 55.7359 32.0589 57.9445 32.0589C60.153 32.0589 61.9575 30.2066 61.9575 27.6855C61.9575 25.154 60.153 23.3121 57.9445 23.3121ZM57.9445 30.3404C56.7321 30.3404 55.6889 29.2496 55.6889 27.6855C55.6889 26.111 56.7321 25.0305 57.9445 25.0305C59.1568 25.0305 60.2 26.111 60.2 27.6855C60.2 29.2496 59.1568 30.3404 57.9445 30.3404ZM47.5312 24.6601V26.5124H51.5912C51.4691 27.5517 51.1495 28.3235 50.6702 28.8483C50.0781 29.4966 49.1571 30.2066 47.5406 30.2066C45.0407 30.2066 43.0858 28.0045 43.0858 25.2672C43.0858 22.53 45.0407 20.3279 47.5406 20.3279C48.8845 20.3279 49.8714 20.9041 50.595 21.6553L51.7886 20.3484C50.7736 19.2885 49.4296 18.4756 47.5312 18.4756C44.1102 18.4756 41.2344 21.5215 41.2344 25.2775C41.2344 29.0232 44.1102 32.0794 47.5312 32.0794C49.3827 32.0794 50.7736 31.4209 51.8638 30.1757C52.9822 28.9512 53.3299 27.2224 53.3299 25.8332C53.3299 25.401 53.3017 24.9997 53.2359 24.6704H47.5312V24.6601ZM90.1147 26.1007C89.7857 25.1232 88.7707 23.3121 86.6937 23.3121C84.6355 23.3121 82.925 25.082 82.925 27.6855C82.925 30.1346 84.6167 32.0589 86.8911 32.0589C88.7237 32.0589 89.7857 30.8343 90.218 30.1243L88.8553 29.1261C88.4042 29.8567 87.7839 30.3404 86.8911 30.3404C85.9982 30.3404 85.3591 29.8876 84.955 29.0129L90.3026 26.5947L90.1147 26.1007ZM84.6637 27.562C84.6167 25.8744 85.8573 25.01 86.7501 25.01C87.4456 25.01 88.0376 25.3907 88.235 25.9361L84.6637 27.562ZM80.3217 31.8016H82.0792V18.9387H80.3217V31.8016ZM77.4458 24.2896H77.38C76.9853 23.7751 76.2334 23.3121 75.2748 23.3121C73.273 23.3121 71.4403 25.2364 71.4403 27.706C71.4403 30.1551 73.273 32.0691 75.2748 32.0691C76.224 32.0691 76.9853 31.6061 77.38 31.071H77.4364V31.6987C77.4364 33.376 76.6188 34.2713 75.303 34.2713C74.2316 34.2713 73.5643 33.4275 73.2918 32.7174L71.7599 33.4172C72.2016 34.58 73.367 36.0001 75.303 36.0001C77.3612 36.0001 79.0999 34.6726 79.0999 31.4414V23.5796H77.4364V24.2896H77.4458ZM75.4252 30.3404C74.2128 30.3404 73.1978 29.229 73.1978 27.706C73.1978 26.1625 74.2128 25.0408 75.4252 25.0408C76.6188 25.0408 77.5586 26.1728 77.5586 27.706C77.568 29.229 76.6282 30.3404 75.4252 30.3404ZM98.3475 18.9387H94.1465V31.8016H95.904V26.924H98.3569C100.302 26.924 102.21 25.3804 102.21 22.9313C102.21 20.4822 100.284 18.9387 98.3475 18.9387ZM98.3851 25.1334H95.8946V20.7189H98.3851C99.7009 20.7189 100.443 21.9126 100.443 22.921C100.443 23.9295 99.7009 25.1334 98.3851 25.1334ZM109.231 23.2915C107.962 23.2915 106.646 23.9089 106.101 25.2569L107.661 25.967C107.99 25.2569 108.61 25.0203 109.259 25.0203C110.161 25.0203 111.092 25.6171 111.101 26.677V26.8108C110.781 26.6153 110.105 26.3168 109.268 26.3168C107.586 26.3168 105.885 27.3253 105.885 29.2084C105.885 30.9269 107.257 32.0383 108.798 32.0383C109.973 32.0383 110.631 31.462 111.035 30.7828H111.092V31.781H112.783V26.8519C112.793 24.5675 111.233 23.2915 109.231 23.2915ZM109.015 30.3404C108.441 30.3404 107.642 30.0214 107.642 29.2496C107.642 28.2617 108.639 27.881 109.503 27.881C110.274 27.881 110.64 28.0662 111.101 28.3132C110.969 29.4966 110.03 30.3404 109.015 30.3404ZM118.958 23.5693L116.947 29.1467H116.89L114.804 23.5693H112.915L116.044 31.3694L114.259 35.7016H116.091L120.913 23.5693H118.958ZM103.169 31.8016H104.926V18.9387H103.169V31.8016Z" fill="white"/>
<path d="M12.4714 8.68922C12.1988 9.00822 12.0391 9.50216 12.0391 10.1299V32.8921C12.0391 33.5301 12.1988 34.0241 12.4714 34.3328L12.5372 34.4048L24.1816 21.6654V21.511V21.3566L12.5372 8.61719L12.4714 8.68922Z" fill="url(#paint0_linear_2189_3928)"/>
<path d="M28.0612 25.9155L24.1797 21.6656V21.5112V21.3569L28.0612 17.1069L28.1457 17.1584L32.7415 20.0191C34.0572 20.832 34.0572 22.1698 32.7415 22.993L28.1457 25.8537L28.0612 25.9155Z" fill="url(#paint1_linear_2189_3928)"/>
<path d="M28.1528 25.8538L24.1868 21.5112L12.4766 34.333C12.9089 34.8372 13.6231 34.899 14.4314 34.3948L28.1528 25.8538Z" fill="url(#paint2_linear_2189_3928)"/>
<path d="M28.1466 17.1685L14.4158 8.62752C13.6075 8.12329 12.8933 8.18504 12.4609 8.68926L24.1806 21.511L28.1466 17.1685Z" fill="url(#paint3_linear_2189_3928)"/>
<path opacity="0.2" d="M28.0604 25.7612L14.4142 34.2508C13.6529 34.7241 12.9669 34.6933 12.5345 34.2611L12.4688 34.3331L12.5345 34.4051C12.9763 34.8373 13.6529 34.8682 14.4142 34.3948L28.145 25.8538L28.0604 25.7612Z" fill="#2E3A59"/>
<path opacity="0.12" d="M12.4714 34.1892C12.1988 33.8702 12.0391 33.3762 12.0391 32.7485V32.9029C12.0391 33.5409 12.1988 34.0348 12.4714 34.3435L12.5372 34.2715L12.4714 34.1892Z" fill="#2E3A59"/>
<path opacity="0.12" d="M32.7444 22.849L28.0547 25.7611L28.1393 25.8538L32.735 22.993C33.3929 22.5814 33.7218 22.0463 33.7218 21.5112C33.6748 21.9949 33.3459 22.4785 32.7444 22.849Z" fill="#2E3A59"/>
<path opacity="0.25" d="M14.4184 8.77188L32.745 20.1736C33.3371 20.544 33.6754 21.0174 33.7318 21.5113C33.7318 20.9762 33.4029 20.4309 32.745 20.0295L14.4184 8.62782C13.1027 7.81488 12.0312 8.49404 12.0312 10.1405V10.2949C12.0312 8.63811 13.112 7.95895 14.4184 8.77188Z" fill="white"/>
<defs>
<linearGradient id="paint0_linear_2189_3928" x1="23.1475" y1="9.89288" x2="5.94859" y2="25.6008" gradientUnits="userSpaceOnUse">
<stop stop-color="#00A0FF"/>
<stop offset="0.00657445" stop-color="#00A1FF"/>
<stop offset="0.2601" stop-color="#00BEFF"/>
<stop offset="0.5122" stop-color="#00D2FF"/>
<stop offset="0.7604" stop-color="#00DFFF"/>
<stop offset="1" stop-color="#00E3FF"/>
</linearGradient>
<linearGradient id="paint1_linear_2189_3928" x1="34.4561" y1="21.5126" x2="11.7153" y2="21.5126" gradientUnits="userSpaceOnUse">
<stop stop-color="#FFE000"/>
<stop offset="0.4087" stop-color="#FFBD00"/>
<stop offset="0.7754" stop-color="#FFA500"/>
<stop offset="1" stop-color="#FF9C00"/>
</linearGradient>
<linearGradient id="paint2_linear_2189_3928" x1="25.9978" y1="23.874" x2="2.67469" y2="45.1752" gradientUnits="userSpaceOnUse">
<stop stop-color="#FF3A44"/>
<stop offset="1" stop-color="#C31162"/>
</linearGradient>
<linearGradient id="paint3_linear_2189_3928" x1="9.51675" y1="1.11165" x2="19.9316" y2="10.6235" gradientUnits="userSpaceOnUse">
<stop stop-color="#32A071"/>
<stop offset="0.0685" stop-color="#2DA771"/>
<stop offset="0.4762" stop-color="#15CF74"/>
<stop offset="0.8009" stop-color="#06E775"/>
<stop offset="1" stop-color="#00F076"/>
</linearGradient>
</defs>
</svg>

