<svg width="40" height="40" viewBox="0 0 40 40" fill="none" xmlns="http://www.w3.org/2000/svg">
<g clip-path="url(#clip0_2189_3664)">
<path d="M2.49952 2.72166C-0.643815 5.98666 -0.000481702 9.455 -0.000481702 19.9917C-0.000481702 28.7417 -1.52715 37.5133 6.46285 39.5783C8.95785 40.22 31.0645 40.22 33.5562 39.575C36.8829 38.7167 39.5895 36.0183 39.9595 31.3133C40.0112 30.6567 40.0112 9.33833 39.9579 8.66833C39.5645 3.65666 36.4795 0.768329 32.4145 0.183329C31.4829 0.0483293 31.2962 0.00832928 26.5162 -4.05312e-06C9.56118 0.00832928 5.84452 -0.746671 2.49952 2.72166Z" fill="url(#paint0_linear_2189_3664)"/>
<path d="M19.9938 5.23154C13.9421 5.23154 8.19542 4.69321 6.00042 10.3265C5.09375 12.6532 5.22542 15.6749 5.22542 20.0015C5.22542 23.7982 5.10375 27.3665 6.00042 29.6749C8.19042 35.3115 13.9838 34.7715 19.9904 34.7715C25.7854 34.7715 31.7604 35.3749 33.9821 29.6749C34.8904 27.3249 34.7571 24.3482 34.7571 20.0015C34.7571 14.2315 35.0754 10.5065 32.2771 7.70987C29.4438 4.87654 25.6121 5.23154 19.9871 5.23154H19.9938ZM18.6704 7.89321C31.2938 7.87321 32.9004 6.46987 32.0138 25.9649C31.6987 32.8599 26.4487 32.1032 19.9954 32.1032C8.22875 32.1032 7.89042 31.7665 7.89042 19.9949C7.89042 8.08654 8.82375 7.89987 18.6704 7.88987V7.89321ZM27.8771 10.3449C26.8988 10.3449 26.1054 11.1382 26.1054 12.1165C26.1054 13.0949 26.8988 13.8882 27.8771 13.8882C28.8554 13.8882 29.6488 13.0949 29.6488 12.1165C29.6488 11.1382 28.8554 10.3449 27.8771 10.3449ZM19.9938 12.4165C15.8054 12.4165 12.4104 15.8132 12.4104 20.0015C12.4104 24.1899 15.8054 27.5849 19.9938 27.5849C24.1821 27.5849 27.5754 24.1899 27.5754 20.0015C27.5754 15.8132 24.1821 12.4165 19.9938 12.4165ZM19.9938 15.0782C26.5021 15.0782 26.5104 24.9249 19.9938 24.9249C13.4871 24.9249 13.4771 15.0782 19.9938 15.0782Z" fill="white"/>
</g>
<defs>
<linearGradient id="paint0_linear_2189_3664" x1="2.57622" y1="37.4452" x2="39.752" y2="5.26996" gradientUnits="userSpaceOnUse">
<stop stop-color="#FFDD55"/>
<stop offset="0.5" stop-color="#FF543E"/>
<stop offset="1" stop-color="#C837AB"/>
</linearGradient>
<clipPath id="clip0_2189_3664">
<rect width="40" height="40" fill="white"/>
</clipPath>
</defs>
</svg>

