<svg width="90" height="14" viewBox="0 0 90 14" fill="none" xmlns="http://www.w3.org/2000/svg">
<path d="M12.814 5.59664C12.7738 5.46691 12.6668 5.37236 12.5381 5.35278L8.92138 4.80182L7.30389 1.36622C7.24633 1.24392 7.1275 1.1665 6.99741 1.1665C6.8673 1.1665 6.74849 1.24392 6.69091 1.36622L5.07336 4.80182L1.4567 5.35278C1.32798 5.37236 1.221 5.46691 1.18081 5.59662C1.14059 5.72635 1.17413 5.86874 1.2673 5.96393L3.88427 8.63818L3.26658 12.4143C3.24457 12.5487 3.2973 12.6846 3.40255 12.7648C3.46209 12.8101 3.53261 12.8332 3.60348 12.8332C3.65789 12.8332 3.71249 12.8196 3.76248 12.792L6.99739 11.0091L10.2322 12.792C10.3474 12.8555 10.4869 12.8449 10.5921 12.7647C10.6974 12.6846 10.7501 12.5487 10.7281 12.4143L10.1102 8.63818L12.7275 5.9639C12.8207 5.86874 12.8542 5.72635 12.814 5.59664Z" fill="#FFA800"/>
<path d="M31.814 5.59664C31.7738 5.46691 31.6668 5.37236 31.5381 5.35278L27.9214 4.80182L26.3039 1.36622C26.2463 1.24392 26.1275 1.1665 25.9974 1.1665C25.8673 1.1665 25.7485 1.24392 25.6909 1.36622L24.0734 4.80182L20.4567 5.35278C20.328 5.37236 20.221 5.46691 20.1808 5.59662C20.1406 5.72635 20.1741 5.86874 20.2673 5.96393L22.8843 8.63818L22.2666 12.4143C22.2446 12.5487 22.2973 12.6846 22.4025 12.7648C22.4621 12.8101 22.5326 12.8332 22.6035 12.8332C22.6579 12.8332 22.7125 12.8196 22.7625 12.792L25.9974 11.0091L29.2322 12.792C29.3474 12.8555 29.4869 12.8449 29.5921 12.7647C29.6974 12.6846 29.7501 12.5487 29.7281 12.4143L29.1102 8.63818L31.7275 5.9639C31.8207 5.86874 31.8542 5.72635 31.814 5.59664Z" fill="#FFA800"/>
<path d="M50.814 5.59664C50.7738 5.46691 50.6668 5.37236 50.5381 5.35278L46.9214 4.80182L45.3039 1.36622C45.2463 1.24392 45.1275 1.1665 44.9974 1.1665C44.8673 1.1665 44.7485 1.24392 44.6909 1.36622L43.0734 4.80182L39.4567 5.35278C39.328 5.37236 39.221 5.46691 39.1808 5.59662C39.1406 5.72635 39.1741 5.86874 39.2673 5.96393L41.8843 8.63818L41.2666 12.4143C41.2446 12.5487 41.2973 12.6846 41.4025 12.7648C41.4621 12.8101 41.5326 12.8332 41.6035 12.8332C41.6579 12.8332 41.7125 12.8196 41.7625 12.792L44.9974 11.0091L48.2322 12.792C48.3474 12.8555 48.4869 12.8449 48.5921 12.7647C48.6974 12.6846 48.7501 12.5487 48.7281 12.4143L48.1102 8.63818L50.7275 5.9639C50.8207 5.86874 50.8542 5.72635 50.814 5.59664Z" fill="#FFA800"/>
<path d="M69.814 5.59664C69.7738 5.46691 69.6668 5.37236 69.5381 5.35278L65.9214 4.80182L64.3039 1.36622C64.2463 1.24392 64.1275 1.1665 63.9974 1.1665C63.8673 1.1665 63.7485 1.24392 63.6909 1.36622L62.0734 4.80182L58.4567 5.35278C58.328 5.37236 58.221 5.46691 58.1808 5.59662C58.1406 5.72635 58.1741 5.86874 58.2673 5.96393L60.8843 8.63818L60.2666 12.4143C60.2446 12.5487 60.2973 12.6846 60.4025 12.7648C60.4621 12.8101 60.5326 12.8332 60.6035 12.8332C60.6579 12.8332 60.7125 12.8196 60.7625 12.792L63.9974 11.0091L67.2322 12.792C67.3474 12.8555 67.4869 12.8449 67.5921 12.7647C67.6974 12.6846 67.7501 12.5487 67.7281 12.4143L67.1102 8.63818L69.7275 5.9639C69.8207 5.86874 69.8542 5.72635 69.814 5.59664Z" fill="#FFA800"/>
<path d="M88.814 5.59664C88.7738 5.46691 88.6668 5.37236 88.5381 5.35278L84.9214 4.80182L83.3039 1.36622C83.2463 1.24392 83.1275 1.1665 82.9974 1.1665C82.8673 1.1665 82.7485 1.24392 82.6909 1.36622L81.0734 4.80182L77.4567 5.35278C77.328 5.37236 77.221 5.46691 77.1808 5.59662C77.1406 5.72635 77.1741 5.86874 77.2673 5.96393L79.8843 8.63818L79.2666 12.4143C79.2446 12.5487 79.2973 12.6846 79.4025 12.7648C79.4621 12.8101 79.5326 12.8332 79.6035 12.8332C79.6579 12.8332 79.7125 12.8196 79.7625 12.792L82.9974 11.0091L86.2322 12.792C86.3474 12.8555 86.4869 12.8449 86.5921 12.7647C86.6974 12.6846 86.7501 12.5487 86.7281 12.4143L86.1102 8.63818L88.7275 5.9639C88.8207 5.86874 88.8542 5.72635 88.814 5.59664Z" fill="#FFA800"/>
</svg>
